<mxfile host="65bd71144e" scale="1" border="10">
    <diagram id="W5IRJ3mJlahcmOzCifq6" name="Page-1">
        <mxGraphModel dx="583" dy="257" grid="1" gridSize="10" guides="1" tooltips="1" connect="1" arrows="1" fold="1" page="1" pageScale="1" pageWidth="827" pageHeight="1169" background="#FFFFFF" math="0" shadow="0">
            <root>
                <mxCell id="0"/>
                <mxCell id="1" parent="0"/>
                <mxCell id="4" value="SASjs Logon Page" style="swimlane;fontStyle=0;childLayout=stackLayout;horizontal=1;startSize=26;horizontalStack=0;resizeParent=1;resizeParentMax=0;resizeLast=0;collapsible=1;marginBottom=0;strokeColor=#000000;fillColor=#E6E6E6;color:#000000;fontColor=#000000;" vertex="1" parent="1">
                    <mxGeometry x="80" y="180" width="180" height="160" as="geometry"/>
                </mxCell>
                <mxCell id="5" value="2. User opens /SASjsLogon" style="text;strokeColor=none;fillColor=none;align=left;verticalAlign=top;spacingLeft=4;spacingRight=4;overflow=hidden;rotatable=0;points=[[0,0.5],[1,0.5]];portConstraint=eastwest;fontColor=#000000;whiteSpace=wrap;" vertex="1" parent="4">
                    <mxGeometry y="26" width="180" height="24" as="geometry"/>
                </mxCell>
                <mxCell id="6" value="4. Frontend redirects to  &#10;/SASLogon/oauth/authorize which returns AUTH_CODE" style="text;strokeColor=none;fillColor=none;align=left;verticalAlign=top;spacingLeft=4;spacingRight=4;overflow=hidden;rotatable=0;points=[[0,0.5],[1,0.5]];portConstraint=eastwest;fontColor=#000000;whiteSpace=wrap;" vertex="1" parent="4">
                    <mxGeometry y="50" width="180" height="50" as="geometry"/>
                </mxCell>
                <mxCell id="19" value="6. Save SESSION_ID to&#10;a cookie and display &#10;&quot;You are Logged In&quot; message" style="text;strokeColor=none;fillColor=none;align=left;verticalAlign=top;spacingLeft=4;spacingRight=4;overflow=hidden;rotatable=0;points=[[0,0.5],[1,0.5]];portConstraint=eastwest;fontColor=#000000;" vertex="1" parent="4">
                    <mxGeometry y="100" width="180" height="60" as="geometry"/>
                </mxCell>
                <mxCell id="27" style="edgeStyle=orthogonalEdgeStyle;rounded=0;orthogonalLoop=1;jettySize=auto;html=1;exitX=1;exitY=0.5;exitDx=0;exitDy=0;labelBackgroundColor=none;fontSize=10;fontColor=#000000;strokeColor=#000000;fillColor=#000000;" edge="1" parent="4" source="6" target="6">
                    <mxGeometry relative="1" as="geometry"/>
                </mxCell>
                <mxCell id="8" value="SASjs API" style="swimlane;fontStyle=0;childLayout=stackLayout;horizontal=1;startSize=26;horizontalStack=0;resizeParent=1;resizeParentMax=0;resizeLast=0;collapsible=1;marginBottom=0;fontColor=#000000;fillColor=#E6E6E6;strokeColor=#000000;" vertex="1" parent="1">
                    <mxGeometry x="360" y="180" width="180" height="160" as="geometry"/>
                </mxCell>
                <mxCell id="9" value="3. Retrieve &amp; send CLIENT_ID" style="text;strokeColor=none;fillColor=none;align=left;verticalAlign=top;spacingLeft=4;spacingRight=4;overflow=hidden;rotatable=0;points=[[0,0.5],[1,0.5]];portConstraint=eastwest;fontColor=#000000;" vertex="1" parent="8">
                    <mxGeometry y="26" width="180" height="34" as="geometry"/>
                </mxCell>
                <mxCell id="10" value="5. Backend requests access &amp; refresh tokens from&#10; /SASLogon/oauth/token, stores in a JWT, and returns SESSION_ID&#10;" style="text;strokeColor=none;fillColor=none;align=left;verticalAlign=top;spacingLeft=4;spacingRight=4;overflow=hidden;rotatable=0;points=[[0,0.5],[1,0.5]];portConstraint=eastwest;fontColor=#000000;whiteSpace=wrap;" vertex="1" parent="8">
                    <mxGeometry y="60" width="180" height="100" as="geometry"/>
                </mxCell>
                <mxCell id="13" value="" style="edgeStyle=orthogonalEdgeStyle;rounded=0;orthogonalLoop=1;jettySize=auto;html=1;exitX=1;exitY=0.5;exitDx=0;exitDy=0;entryX=0;entryY=0.341;entryDx=0;entryDy=0;fontColor=#000000;labelBackgroundColor=none;labelBorderColor=none;strokeColor=#000000;entryPerimeter=0;" edge="1" parent="1" source="5" target="9">
                    <mxGeometry x="-0.1228" y="-9" relative="1" as="geometry">
                        <mxPoint x="9" y="-9" as="offset"/>
                    </mxGeometry>
                </mxCell>
                <mxCell id="20" style="edgeStyle=orthogonalEdgeStyle;rounded=0;orthogonalLoop=1;jettySize=auto;html=1;fillColor=#000000;strokeColor=#000000;exitX=-0.006;exitY=0.677;exitDx=0;exitDy=0;exitPerimeter=0;" edge="1" parent="1" source="9" target="6">
                    <mxGeometry relative="1" as="geometry">
                        <Array as="points">
                            <mxPoint x="330" y="229"/>
                            <mxPoint x="330" y="252"/>
                        </Array>
                    </mxGeometry>
                </mxCell>
                <mxCell id="23" value="&lt;span&gt;1.&amp;nbsp; Administrator creates&amp;nbsp;CLIENT_ID &amp;amp; CLIENT_SECRET&lt;/span&gt;&lt;br&gt;&lt;span&gt;and saves to Server Backend&lt;/span&gt;" style="rounded=0;whiteSpace=wrap;html=1;fontColor=#000000;labelBackgroundColor=#ffffff;labelBorderColor=#000000;" vertex="1" parent="1">
                    <mxGeometry x="225" y="110" width="170" height="60" as="geometry"/>
                </mxCell>
                <mxCell id="24" value="&lt;font style=&quot;font-size: 18px&quot;&gt;Viya Auth Flow for SASjs Server&lt;/font&gt;" style="text;html=1;strokeColor=none;fillColor=none;align=center;verticalAlign=middle;whiteSpace=wrap;rounded=0;fontColor=#000000;" vertex="1" parent="1">
                    <mxGeometry x="80" y="70" width="280" height="30" as="geometry"/>
                </mxCell>
                <mxCell id="25" style="edgeStyle=orthogonalEdgeStyle;rounded=0;orthogonalLoop=1;jettySize=auto;html=1;exitX=0;exitY=0.625;exitDx=0;exitDy=0;labelBackgroundColor=none;fontSize=10;fontColor=#000000;strokeColor=#000000;fillColor=#000000;exitPerimeter=0;entryX=1;entryY=0.5;entryDx=0;entryDy=0;" edge="1" parent="1" source="10" target="19">
                    <mxGeometry relative="1" as="geometry">
                        <mxPoint x="264" y="320" as="targetPoint"/>
                    </mxGeometry>
                </mxCell>
                <mxCell id="28" style="edgeStyle=orthogonalEdgeStyle;rounded=0;orthogonalLoop=1;jettySize=auto;html=1;exitX=1.019;exitY=0.785;exitDx=0;exitDy=0;entryX=0;entryY=0.3;entryDx=0;entryDy=0;entryPerimeter=0;labelBackgroundColor=none;fontSize=10;fontColor=#000000;strokeColor=#000000;fillColor=#000000;exitPerimeter=0;" edge="1" parent="1" source="6" target="10">
                    <mxGeometry relative="1" as="geometry"/>
                </mxCell>
            </root>
        </mxGraphModel>
    </diagram>
</mxfile>